<?xml version="1.0" encoding="UTF-8" standalone="no"?>
<svg
   xmlns:dc="http://purl.org/dc/elements/1.1/"
   xmlns:cc="http://creativecommons.org/ns#"
   xmlns:rdf="http://www.w3.org/1999/02/22-rdf-syntax-ns#"
   xmlns:svg="http://www.w3.org/2000/svg"
   xmlns="http://www.w3.org/2000/svg"
   xmlns:sodipodi="http://sodipodi.sourceforge.net/DTD/sodipodi-0.dtd"
   xmlns:inkscape="http://www.inkscape.org/namespaces/inkscape"
   version="1.1"
   viewBox="0 0 676.30573 379.68036"
   stroke-miterlimit="10"
   id="svg99"
   sodipodi:docname="RINF-LDES_architecture.svg"
   width="676.30573"
   height="379.68036"
   style="fill:none;stroke:none;stroke-linecap:square;stroke-miterlimit:10"
   inkscape:version="0.92.5 (2060ec1f9f, 2020-04-08)">
  <metadata
     id="metadata105">
    <rdf:RDF>
      <cc:Work
         rdf:about="">
        <dc:format>image/svg+xml</dc:format>
        <dc:type
           rdf:resource="http://purl.org/dc/dcmitype/StillImage" />
        <dc:title></dc:title>
      </cc:Work>
    </rdf:RDF>
  </metadata>
  <defs
     id="defs103" />
  <sodipodi:namedview
     pagecolor="#ffffff"
     bordercolor="#666666"
     borderopacity="1"
     objecttolerance="10"
     gridtolerance="10"
     guidetolerance="10"
     inkscape:pageopacity="0"
     inkscape:pageshadow="2"
     inkscape:window-width="1920"
     inkscape:window-height="961"
     id="namedview101"
     showgrid="false"
     fit-margin-top="0"
     fit-margin-left="0"
     fit-margin-right="0"
     fit-margin-bottom="0"
     inkscape:zoom="0.92709556"
     inkscape:cx="340.15796"
     inkscape:cy="164.39871"
     inkscape:window-x="1920"
     inkscape:window-y="27"
     inkscape:window-maximized="1"
     inkscape:current-layer="svg99" />
  <clipPath
     id="p.0">
    <path
       d="M 0,0 H 960 V 720 H 0 Z"
       id="path2"
       inkscape:connector-curvature="0"
       style="clip-rule:nonzero" />
  </clipPath>
  <g
     clip-path="url(#p.0)"
     id="g97"
     transform="translate(-113.25694,-194.70355)">
    <path
       d="M 0,0 H 960 V 720 H 0 Z"
       id="path5"
       inkscape:connector-curvature="0"
       style="fill:#000000;fill-opacity:0;fill-rule:evenodd" />
    <path
       d="m 243.41733,345.0455 v 0 c 0,-24.48077 19.84558,-44.32635 44.32635,-44.32635 h 384.51266 c 11.75605,0 23.03064,4.6701 31.34345,12.98291 8.3128,8.3128 12.98291,19.58737 12.98291,31.34344 v 177.30008 c 0,24.48077 -19.84558,44.32636 -44.32636,44.32636 H 287.74368 c -24.48077,0 -44.32635,-19.84559 -44.32635,-44.32636 z"
       id="path7"
       inkscape:connector-curvature="0"
       style="fill:#cfe2f3;fill-rule:evenodd" />
    <path
       d="m 279.30463,390.17584 h 119.16519 c 2.7e-4,0 5.5e-4,1.2e-4 7.6e-4,3.4e-4 1.9e-4,1.8e-4 3.1e-4,4.5e-4 3.1e-4,7.3e-4 l -10e-4,43.22711 c 0,4.77496 -3.87088,8.64584 -8.64584,8.64584 H 270.65879 v 0 c -5.8e-4,0 -0.001,-4.9e-4 -0.001,-0.001 l 0.001,-43.22711 v 0 c 0,-4.77496 3.87088,-8.64584 8.64584,-8.64584 z"
       id="path9"
       inkscape:connector-curvature="0"
       style="fill:#fce5cd;fill-rule:evenodd" />
    <path
       d="m 279.30463,390.17584 h 119.16519 c 2.7e-4,0 5.5e-4,1.2e-4 7.6e-4,3.4e-4 1.9e-4,1.8e-4 3.1e-4,4.5e-4 3.1e-4,7.3e-4 l -10e-4,43.22711 c 0,4.77496 -3.87088,8.64584 -8.64584,8.64584 H 270.65879 v 0 c -5.8e-4,0 -0.001,-4.9e-4 -0.001,-0.001 l 0.001,-43.22711 v 0 c 0,-4.77496 3.87088,-8.64584 8.64584,-8.64584 z"
       id="path11"
       inkscape:connector-curvature="0"
       style="fill-rule:evenodd;stroke:#595959;stroke-width:1;stroke-linecap:butt;stroke-linejoin:round" />
    <path
       d="m 294.66135,411.3635 q 2.4375,0 2.4375,-1.65625 0,-0.51563 -0.21875,-0.875 -0.21875,-0.35938 -0.59375,-0.625 -0.35937,-0.26563 -0.84375,-0.45313 -0.46875,-0.1875 -0.98437,-0.39062 -0.60938,-0.20313 -1.15625,-0.46875 -0.54688,-0.26563 -0.95313,-0.625 -0.39062,-0.35938 -0.625,-0.84375 -0.23437,-0.5 -0.23437,-1.20313 0,-1.46875 0.98437,-2.28125 1,-0.8125 2.75,-0.8125 1,0 1.82813,0.21875 0.82812,0.21875 1.20312,0.46875 l -0.48437,1.26563 q -0.34375,-0.20313 -1.01563,-0.40625 -0.65625,-0.20313 -1.53125,-0.20313 -0.45312,0 -0.84375,0.0937 -0.375,0.0937 -0.67187,0.29688 -0.28125,0.1875 -0.45313,0.48437 -0.15625,0.29688 -0.15625,0.6875 0,0.45313 0.17188,0.76563 0.17187,0.29687 0.48437,0.53125 0.32813,0.23437 0.75,0.42187 0.42188,0.1875 0.9375,0.375 0.71875,0.29688 1.3125,0.59375 0.60938,0.28125 1.04688,0.6875 0.4375,0.39063 0.67187,0.95313 0.25,0.54687 0.25,1.32812 0,1.45313 -1.0625,2.23438 -1.0625,0.78125 -3,0.78125 -0.65625,0 -1.21875,-0.0937 -0.54687,-0.0781 -0.98437,-0.1875 -0.42188,-0.125 -0.73438,-0.26563 -0.3125,-0.14062 -0.48437,-0.23437 l 0.45312,-1.28125 q 0.375,0.21875 1.125,0.46875 0.75,0.25 1.84375,0.25 z m 13.1839,-3.04688 q 0,0.98438 -0.29688,1.79688 -0.28125,0.79687 -0.79687,1.375 -0.51563,0.5625 -1.25,0.875 -0.71875,0.3125 -1.5625,0.3125 -0.84375,0 -1.5625,-0.3125 -0.71875,-0.3125 -1.25,-0.875 -0.51563,-0.57813 -0.8125,-1.375 -0.28125,-0.8125 -0.28125,-1.79688 0,-0.98437 0.28125,-1.78125 0.29687,-0.8125 0.8125,-1.39062 0.53125,-0.57813 1.25,-0.89063 0.71875,-0.3125 1.5625,-0.3125 0.84375,0 1.5625,0.3125 0.73437,0.3125 1.25,0.89063 0.51562,0.57812 0.79687,1.39062 0.29688,0.79688 0.29688,1.78125 z m -1.54688,0 q 0,-1.40625 -0.64062,-2.23437 -0.625,-0.82813 -1.71875,-0.82813 -1.09375,0 -1.71875,0.82813 -0.625,0.82812 -0.625,2.23437 0,1.40625 0.625,2.23438 0.625,0.8125 1.71875,0.8125 1.09375,0 1.71875,-0.8125 0.64062,-0.82813 0.64062,-2.23438 z m 10.26813,3.92188 q -0.51562,0.125 -1.35937,0.26562 -0.82813,0.14063 -1.9375,0.14063 -0.96875,0 -1.625,-0.28125 -0.64063,-0.28125 -1.04688,-0.78125 -0.40625,-0.51563 -0.57812,-1.20313 -0.17188,-0.70312 -0.17188,-1.54687 v -4.67188 h 1.48438 v 4.34375 q 0,1.51563 0.46875,2.17188 0.48437,0.65625 1.625,0.65625 0.25,0 0.5,-0.0156 0.25,-0.0156 0.46875,-0.0312 0.23437,-0.0312 0.42187,-0.0469 0.1875,-0.0312 0.26563,-0.0625 v -7.01563 h 1.48437 z m 5.63715,-8.26563 q 0.1875,0 0.4375,0.0312 0.25,0.0156 0.48437,0.0625 0.23438,0.0312 0.4375,0.0781 0.20313,0.0469 0.29688,0.0781 l -0.25,1.29688 q -0.1875,-0.0781 -0.59375,-0.15625 -0.40625,-0.0937 -1.04688,-0.0937 -0.40625,0 -0.82812,0.0937 -0.40625,0.0781 -0.53125,0.125 v 6.98437 h -1.48438 v -7.96875 q 0.53125,-0.1875 1.3125,-0.35937 0.78125,-0.17188 1.76563,-0.17188 z m 6.70727,8.6875 q -1,0 -1.76562,-0.3125 -0.75,-0.32812 -1.28125,-0.89062 -0.51563,-0.57813 -0.78125,-1.375 -0.25,-0.79688 -0.25,-1.75 0,-0.96875 0.28125,-1.76563 0.28125,-0.79687 0.79687,-1.375 0.51563,-0.59375 1.25,-0.92187 0.75,-0.32813 1.65625,-0.32813 0.5625,0 1.125,0.0937 0.5625,0.0937 1.0625,0.3125 l -0.32812,1.26563 q -0.34375,-0.17188 -0.78125,-0.26563 -0.4375,-0.0937 -0.9375,-0.0937 -1.23438,0 -1.90625,0.79688 -0.65625,0.78125 -0.65625,2.28125 0,0.67187 0.14062,1.23437 0.15625,0.54688 0.48438,0.95313 0.32812,0.40625 0.84375,0.625 0.51562,0.20312 1.25,0.20312 0.59375,0 1.0625,-0.10937 0.48437,-0.10938 0.75,-0.23438 l 0.21875,1.25 q -0.14063,0.0781 -0.375,0.15625 -0.23438,0.0625 -0.54688,0.10938 -0.29687,0.0625 -0.64062,0.0937 -0.34375,0.0469 -0.67188,0.0469 z m 3.36188,-4.32812 q 0,-1.10938 0.3125,-1.92188 0.32812,-0.82812 0.85937,-1.375 0.53125,-0.54687 1.21875,-0.8125 0.6875,-0.28125 1.40625,-0.28125 1.67188,0 2.5625,1.04688 0.90625,1.04687 0.90625,3.20312 0,0.0937 0,0.25 0,0.14063 -0.0156,0.26563 h -5.6875 q 0.0937,1.29687 0.75,1.96875 0.65625,0.67187 2.04687,0.67187 0.78125,0 1.3125,-0.125 0.54688,-0.14062 0.8125,-0.26562 l 0.20313,1.25 q -0.26563,0.14062 -0.95313,0.29687 -0.67187,0.15625 -1.53125,0.15625 -1.09375,0 -1.89062,-0.32812 -0.78125,-0.32813 -1.29688,-0.89063 -0.51562,-0.57812 -0.76562,-1.375 -0.25,-0.79687 -0.25,-1.73437 z m 5.71875,-0.8125 q 0.0156,-1.01563 -0.51563,-1.65625 -0.51562,-0.65625 -1.42187,-0.65625 -0.51563,0 -0.90625,0.20312 -0.39063,0.20313 -0.67188,0.53125 -0.26562,0.3125 -0.42187,0.73438 -0.14063,0.40625 -0.1875,0.84375 z m 16.59317,-0.59375 q 0,1.4375 -0.45313,2.5 -0.45312,1.0625 -1.26562,1.76562 -0.8125,0.6875 -1.95313,1.03125 -1.125,0.34375 -2.5,0.34375 -0.67187,0 -1.48437,-0.0625 -0.79688,-0.0469 -1.45313,-0.20312 v -10.75 q 0.65625,-0.17188 1.45313,-0.21875 0.8125,-0.0625 1.48437,-0.0625 1.375,0 2.5,0.34375 1.14063,0.34375 1.95313,1.04687 0.8125,0.6875 1.26562,1.76563 0.45313,1.0625 0.45313,2.5 z m -6.03125,4.28125 q 2.20312,0 3.28125,-1.125 1.09375,-1.125 1.09375,-3.15625 0,-2.03125 -1.09375,-3.15625 -1.07813,-1.14063 -3.28125,-1.14063 -0.65625,0 -1.01563,0.0156 -0.35937,0.0156 -0.51562,0.0312 v 8.48437 q 0.15625,0.0156 0.51562,0.0312 0.35938,0.0156 1.01563,0.0156 z m 10.82465,0.1875 q 0.53125,0 0.9375,-0.0156 0.40625,-0.0312 0.6875,-0.0937 v -2.46875 q -0.17188,-0.0937 -0.53125,-0.14062 -0.35938,-0.0625 -0.875,-0.0625 -0.32813,0 -0.70313,0.0469 -0.375,0.0469 -0.6875,0.20313 -0.3125,0.15625 -0.53125,0.42187 -0.20312,0.26563 -0.20312,0.6875 0,0.79688 0.51562,1.10938 0.51563,0.3125 1.39063,0.3125 z m -0.125,-7.45313 q 0.89062,0 1.5,0.23438 0.625,0.23437 1,0.65625 0.375,0.42187 0.53125,1.01562 0.17187,0.57813 0.17187,1.28125 v 5.20313 q -0.20312,0.0312 -0.54687,0.0937 -0.34375,0.0469 -0.78125,0.0937 -0.42188,0.0469 -0.92188,0.0781 -0.5,0.0469 -1,0.0469 -0.70312,0 -1.29687,-0.14063 -0.59375,-0.14062 -1.03125,-0.45312 -0.42188,-0.3125 -0.67188,-0.82813 -0.23437,-0.51562 -0.23437,-1.23437 0,-0.6875 0.28125,-1.17188 0.28125,-0.5 0.75,-0.79687 0.48437,-0.3125 1.125,-0.45313 0.64062,-0.15625 1.34375,-0.15625 0.23437,0 0.46875,0.0312 0.23437,0.0156 0.45312,0.0625 0.21875,0.0469 0.375,0.0781 0.15625,0.0312 0.23438,0.0469 v -0.42187 q 0,-0.35938 -0.0937,-0.71875 -0.0781,-0.375 -0.28125,-0.64063 -0.20313,-0.28125 -0.5625,-0.45312 -0.35938,-0.17188 -0.9375,-0.17188 -0.73438,0 -1.29688,0.10938 -0.54687,0.0937 -0.8125,0.21875 l -0.1875,-1.23438 q 0.29688,-0.125 0.96875,-0.25 0.67188,-0.125 1.45313,-0.125 z m 7.05514,0.21875 h 3.15625 v 1.23438 h -3.15625 v 3.84375 q 0,0.625 0.0937,1.03125 0.0937,0.40625 0.28125,0.64062 0.20313,0.23438 0.48438,0.32813 0.29687,0.0937 0.67187,0.0937 0.67188,0 1.07813,-0.14063 0.42187,-0.15625 0.57812,-0.21875 l 0.28125,1.23438 q -0.21875,0.10937 -0.78125,0.26562 -0.5625,0.17188 -1.28125,0.17188 -0.84375,0 -1.40625,-0.20313 -0.54687,-0.21875 -0.89062,-0.65625 -0.32813,-0.4375 -0.46875,-1.0625 -0.125,-0.64062 -0.125,-1.46875 v -7.42187 l 1.48437,-0.25 z m 7.85388,7.23438 q 0.53125,0 0.9375,-0.0156 0.40625,-0.0312 0.6875,-0.0937 v -2.46875 q -0.17187,-0.0937 -0.53125,-0.14062 -0.35937,-0.0625 -0.875,-0.0625 -0.32812,0 -0.70312,0.0469 -0.375,0.0469 -0.6875,0.20313 -0.3125,0.15625 -0.53125,0.42187 -0.20313,0.26563 -0.20313,0.6875 0,0.79688 0.51563,1.10938 0.51562,0.3125 1.39062,0.3125 z m -0.125,-7.45313 q 0.89063,0 1.5,0.23438 0.625,0.23437 1,0.65625 0.375,0.42187 0.53125,1.01562 0.17188,0.57813 0.17188,1.28125 v 5.20313 q -0.20313,0.0312 -0.54688,0.0937 -0.34375,0.0469 -0.78125,0.0937 -0.42187,0.0469 -0.92187,0.0781 -0.5,0.0469 -1,0.0469 -0.70313,0 -1.29688,-0.14063 -0.59375,-0.14062 -1.03125,-0.45312 -0.42187,-0.3125 -0.67187,-0.82813 -0.23438,-0.51562 -0.23438,-1.23437 0,-0.6875 0.28125,-1.17188 0.28125,-0.5 0.75,-0.79687 0.48438,-0.3125 1.125,-0.45313 0.64063,-0.15625 1.34375,-0.15625 0.23438,0 0.46875,0.0312 0.23438,0.0156 0.45313,0.0625 0.21875,0.0469 0.375,0.0781 0.15625,0.0312 0.23437,0.0469 v -0.42187 q 0,-0.35938 -0.0937,-0.71875 -0.0781,-0.375 -0.28125,-0.64063 -0.20312,-0.28125 -0.5625,-0.45312 -0.35937,-0.17188 -0.9375,-0.17188 -0.73437,0 -1.29687,0.10938 -0.54688,0.0937 -0.8125,0.21875 l -0.1875,-1.23438 q 0.29687,-0.125 0.96875,-0.25 0.67187,-0.125 1.45312,-0.125 z"
       id="path13"
       inkscape:connector-curvature="0"
       style="fill:#000000;fill-rule:nonzero" />
    <path
       d="m 312.79562,429.94162 q -0.17188,-0.39063 -0.4375,-0.98438 -0.26563,-0.59375 -0.5625,-1.28125 -0.29688,-0.6875 -0.64063,-1.40625 -0.34375,-0.73437 -0.65625,-1.375 -0.29687,-0.65625 -0.5625,-1.15625 -0.26562,-0.51562 -0.42187,-0.79687 -0.1875,1.89062 -0.29688,4.09375 -0.10937,2.20312 -0.1875,4.4375 h -1.51562 q 0.0625,-1.4375 0.14062,-2.90625 0.0781,-1.46875 0.17188,-2.875 0.10937,-1.42188 0.23437,-2.76563 0.125,-1.34375 0.26563,-2.54687 h 1.35937 q 0.4375,0.70312 0.92188,1.67187 0.5,0.95313 0.98437,2 0.5,1.04688 0.96875,2.10938 0.46875,1.04687 0.84375,1.90625 0.39063,-0.85938 0.84375,-1.90625 0.46875,-1.0625 0.96875,-2.10938 0.5,-1.04687 0.98438,-2 0.5,-0.96875 0.9375,-1.67187 h 1.35937 q 0.54688,5.35937 0.8125,11.09375 h -1.51562 q -0.0781,-2.23438 -0.1875,-4.4375 -0.10938,-2.20313 -0.29688,-4.09375 -0.15625,0.28125 -0.42187,0.79687 -0.26563,0.5 -0.57813,1.15625 -0.29687,0.64063 -0.64062,1.375 -0.34375,0.71875 -0.65625,1.40625 -0.29688,0.6875 -0.5625,1.28125 -0.25,0.59375 -0.42188,0.98438 z m 11.67041,0.45312 q 0.53125,0 0.9375,-0.0156 0.40625,-0.0312 0.6875,-0.0937 v -2.46875 q -0.17188,-0.0937 -0.53125,-0.14063 -0.35938,-0.0625 -0.875,-0.0625 -0.32813,0 -0.70313,0.0469 -0.375,0.0469 -0.6875,0.20312 -0.3125,0.15625 -0.53125,0.42188 -0.20312,0.26562 -0.20312,0.6875 0,0.79687 0.51562,1.10937 0.51563,0.3125 1.39063,0.3125 z m -0.125,-7.45312 q 0.89062,0 1.5,0.23437 0.625,0.23438 1,0.65625 0.375,0.42188 0.53125,1.01563 0.17187,0.57812 0.17187,1.28125 v 5.20312 q -0.20312,0.0312 -0.54687,0.0937 -0.34375,0.0469 -0.78125,0.0937 -0.42188,0.0469 -0.92188,0.0781 -0.5,0.0469 -1,0.0469 -0.70312,0 -1.29687,-0.14062 -0.59375,-0.14063 -1.03125,-0.45313 -0.42188,-0.3125 -0.67188,-0.82812 -0.23437,-0.51563 -0.23437,-1.23438 0,-0.6875 0.28125,-1.17187 0.28125,-0.5 0.75,-0.79688 0.48437,-0.3125 1.125,-0.45312 0.64062,-0.15625 1.34375,-0.15625 0.23437,0 0.46875,0.0312 0.23437,0.0156 0.45312,0.0625 0.21875,0.0469 0.375,0.0781 0.15625,0.0312 0.23438,0.0469 v -0.42188 q 0,-0.35937 -0.0937,-0.71875 -0.0781,-0.375 -0.28125,-0.64062 -0.20313,-0.28125 -0.5625,-0.45313 -0.35938,-0.17187 -0.9375,-0.17187 -0.73438,0 -1.29688,0.10937 -0.54687,0.0937 -0.8125,0.21875 l -0.1875,-1.23437 q 0.29688,-0.125 0.96875,-0.25 0.67188,-0.125 1.45313,-0.125 z m 11.44577,4.39062 q 0,-1.45312 -0.73438,-2.23437 -0.71875,-0.79688 -1.90625,-0.79688 -0.67187,0 -1.0625,0.0469 -0.375,0.0469 -0.59375,0.10937 v 5.25 q 0.28125,0.23438 0.78125,0.4375 0.51563,0.20313 1.125,0.20313 0.64063,0 1.09375,-0.21875 0.45313,-0.23438 0.73438,-0.64063 0.29687,-0.42187 0.42187,-0.96875 0.14063,-0.54687 0.14063,-1.1875 z m 1.54687,0 q 0,0.9375 -0.25,1.75 -0.25,0.79688 -0.73437,1.375 -0.46875,0.5625 -1.17188,0.89063 -0.6875,0.3125 -1.59375,0.3125 -0.71875,0 -1.26562,-0.1875 -0.54688,-0.1875 -0.82813,-0.375 v 3.32812 h -1.48437 v -11.01562 q 0.53125,-0.125 1.3125,-0.28125 0.79687,-0.15625 1.84375,-0.15625 0.95312,0 1.71875,0.3125 0.76562,0.29687 1.3125,0.85937 0.54687,0.5625 0.84375,1.375 0.29687,0.79688 0.29687,1.8125 z m 7.87714,0 q 0,-1.45312 -0.73437,-2.23437 -0.71875,-0.79688 -1.90625,-0.79688 -0.67188,0 -1.0625,0.0469 -0.375,0.0469 -0.59375,0.10937 v 5.25 q 0.28125,0.23438 0.78125,0.4375 0.51562,0.20313 1.125,0.20313 0.64062,0 1.09375,-0.21875 0.45312,-0.23438 0.73437,-0.64063 0.29688,-0.42187 0.42188,-0.96875 0.14062,-0.54687 0.14062,-1.1875 z m 1.54688,0 q 0,0.9375 -0.25,1.75 -0.25,0.79688 -0.73438,1.375 -0.46875,0.5625 -1.17187,0.89063 -0.6875,0.3125 -1.59375,0.3125 -0.71875,0 -1.26563,-0.1875 -0.54687,-0.1875 -0.82812,-0.375 v 3.32812 h -1.48438 v -11.01562 q 0.53125,-0.125 1.3125,-0.28125 0.79688,-0.15625 1.84375,-0.15625 0.95313,0 1.71875,0.3125 0.76563,0.29687 1.3125,0.85937 0.54688,0.5625 0.84375,1.375 0.29688,0.79688 0.29688,1.8125 z m 1.62716,0 q 0,-1.10937 0.3125,-1.92187 0.32813,-0.82813 0.85938,-1.375 0.53125,-0.54688 1.21875,-0.8125 0.6875,-0.28125 1.40625,-0.28125 1.67187,0 2.5625,1.04687 0.90625,1.04688 0.90625,3.20313 0,0.0937 0,0.25 0,0.14062 -0.0156,0.26562 h -5.6875 q 0.0937,1.29688 0.75,1.96875 0.65625,0.67188 2.04688,0.67188 0.78125,0 1.3125,-0.125 0.54687,-0.14063 0.8125,-0.26563 l 0.20312,1.25 q -0.26562,0.14063 -0.95312,0.29688 -0.67188,0.15625 -1.53125,0.15625 -1.09375,0 -1.89063,-0.32813 -0.78125,-0.32812 -1.29687,-0.89062 -0.51563,-0.57813 -0.76563,-1.375 -0.25,-0.79688 -0.25,-1.73438 z m 5.71875,-0.8125 q 0.0156,-1.01562 -0.51562,-1.65625 -0.51563,-0.65625 -1.42188,-0.65625 -0.51562,0 -0.90625,0.20313 -0.39062,0.20312 -0.67187,0.53125 -0.26563,0.3125 -0.42188,0.73437 -0.14062,0.40625 -0.1875,0.84375 z m 6.77213,-3.54687 q 0.1875,0 0.4375,0.0312 0.25,0.0156 0.48437,0.0625 0.23438,0.0312 0.4375,0.0781 0.20313,0.0469 0.29688,0.0781 l -0.25,1.29687 q -0.1875,-0.0781 -0.59375,-0.15625 -0.40625,-0.0937 -1.04688,-0.0937 -0.40625,0 -0.82812,0.0937 -0.40625,0.0781 -0.53125,0.125 v 6.98438 h -1.48438 v -7.96875 q 0.53125,-0.1875 1.3125,-0.35938 0.78125,-0.17187 1.76563,-0.17187 z"
       id="path15"
       inkscape:connector-curvature="0"
       style="fill:#000000;fill-rule:nonzero" />
    <path
       d="m 153.49738,247.72704 h 36.32532 l 7.26523,7.26523 v 42.81352 h -43.59055 z"
       id="path17"
       inkscape:connector-curvature="0"
       style="fill:#ea9999;fill-rule:evenodd" />
    <path
       d="m 153.49738,247.72704 h 36.32532 l 7.26523,7.26523 v 42.81352 h -43.59055 z"
       id="path19"
       inkscape:connector-curvature="0"
       style="fill-rule:evenodd;stroke:#000000;stroke-width:1;stroke-linecap:butt;stroke-linejoin:round" />
    <path
       d="m 140.11154,254.51181 h 36.32532 l 7.26524,7.26523 v 42.81351 h -43.59056 z"
       id="path21"
       inkscape:connector-curvature="0"
       style="fill:#ea9999;fill-rule:evenodd" />
    <path
       d="m 140.11154,254.51181 h 36.32532 l 7.26524,7.26523 v 42.81351 h -43.59056 z"
       id="path23"
       inkscape:connector-curvature="0"
       style="fill-rule:evenodd;stroke:#000000;stroke-width:1;stroke-linecap:butt;stroke-linejoin:round" />
    <path
       d="m 123.91732,264.36484 h 36.32531 l 7.26524,7.26523 v 42.81351 h -43.59055 z"
       id="path25"
       inkscape:connector-curvature="0"
       style="fill:#ea9999;fill-rule:evenodd" />
    <path
       d="m 123.91732,264.36484 h 36.32531 l 7.26524,7.26523 v 42.81351 h -43.59055 z"
       id="path27"
       inkscape:connector-curvature="0"
       style="fill-rule:evenodd;stroke:#000000;stroke-width:1;stroke-linecap:butt;stroke-linejoin:round" />
    <path
       d="m 138.29233,295.19363 -0.64063,0.64062 -3.9375,-3.28125 3.9375,-3.29687 0.64063,0.65625 -3.1875,2.625 z m 6.89453,-7.73438 -4.03125,9.54688 h -0.96875 l 4.01563,-9.54688 z m 2.14453,2.45313 0.64063,-0.65625 3.9375,3.29687 -3.9375,3.28125 -0.64063,-0.64062 3.20313,-2.64063 z"
       id="path29"
       inkscape:connector-curvature="0"
       style="fill:#000000;fill-rule:nonzero" />
    <path
       d="M 96.597115,189.8819 H 224.40814 v 64.62991 H 96.597115 Z"
       id="path31"
       inkscape:connector-curvature="0"
       style="fill:#000000;fill-opacity:0;fill-rule:evenodd" />
    <path
       d="m 126.89583,211.39565 q 0.3125,0.375 0.76563,0.98437 0.45312,0.59375 0.93749,1.34375 0.48438,0.73438 0.95313,1.53125 0.48437,0.79688 0.82812,1.54688 h -1.98437 q -0.375,-0.70313 -0.8125,-1.4375 -0.4375,-0.73438 -0.89063,-1.39063 -0.4375,-0.65625 -0.875,-1.23437 -0.4375,-0.57813 -0.79687,-1.01563 -0.25,0.0156 -0.5,0.0156 -0.25,0 -0.51563,0 h -1.60937 v 5.0625 h -1.8125 v -12.75 q 0.76562,-0.17188 1.70312,-0.23438 0.9375,-0.0781 1.71875,-0.0781 2.73438,0 4.15625,1.03125 1.42188,1.03125 1.42188,3.0625 0,1.28125 -0.6875,2.20312 -0.67188,0.90625 -2,1.35938 z m -2.73437,-6.0625 q -1.15625,0 -1.76563,0.0469 v 4.875 h 1.28125 q 0.9375,0 1.67188,-0.0937 0.75,-0.0937 1.26562,-0.34375 0.51563,-0.26562 0.79688,-0.73437 0.28125,-0.48438 0.28125,-1.28125 0,-0.71875 -0.28125,-1.20313 -0.28125,-0.48437 -0.76563,-0.76562 -0.46875,-0.28125 -1.125,-0.39063 -0.64062,-0.10937 -1.35937,-0.10937 z m 8.15666,-1.45313 h 1.8125 v 12.92188 h -1.8125 z m 13.87791,12.92188 q -0.40625,-0.6875 -0.9375,-1.54688 -0.53125,-0.85937 -1.15625,-1.78125 -0.60937,-0.92187 -1.28125,-1.875 -0.65625,-0.95312 -1.3125,-1.82812 -0.65625,-0.89063 -1.26562,-1.67188 -0.60938,-0.79687 -1.14063,-1.39062 v 10.09375 h -1.76562 v -12.92188 h 1.4375 q 0.875,0.92188 1.85937,2.17188 1,1.23437 1.98438,2.54687 0.98437,1.3125 1.84375,2.59375 0.875,1.26563 1.46875,2.25 v -9.5625 h 1.78125 v 12.92188 z m 4.72238,0 v -12.92188 h 7.79688 v 1.54688 h -5.98438 v 3.89062 h 5.3125 v 1.53125 h -5.3125 v 5.95313 z m 8.8934,-6.40625 h 4.60938 v 1.625 h -4.60938 z m 13.87456,6.40625 q -0.28125,-0.5625 -0.67187,-1.23438 -0.39063,-0.6875 -0.85938,-1.42187 -0.45312,-0.73438 -0.96875,-1.46875 -0.5,-0.75 -0.96875,-1.39063 -0.46875,0.64063 -0.96875,1.39063 -0.5,0.73437 -0.96875,1.46875 -0.45312,0.73437 -0.85937,1.42187 -0.39063,0.67188 -0.67188,1.23438 h -2 q 0.84375,-1.64063 1.95313,-3.32813 1.10937,-1.70312 2.35937,-3.5 l -4.14062,-6.09375 h 2.09375 l 3.1875,4.8125 3.15625,-4.8125 h 2.0625 l -4.0625,6.01563 q 1.26562,1.8125 2.39062,3.53125 1.125,1.71875 1.98438,3.375 z m 9.81897,-1.79688 q -0.1875,-0.4375 -0.5,-1.125 -0.29687,-0.70312 -0.65625,-1.5 -0.35937,-0.79687 -0.76562,-1.64062 -0.39063,-0.85938 -0.75,-1.60938 -0.34375,-0.76562 -0.65625,-1.35937 -0.3125,-0.59375 -0.5,-0.90625 -0.20313,2.1875 -0.34375,4.76562 -0.125,2.5625 -0.21875,5.17188 h -1.76563 q 0.0781,-1.67188 0.17188,-3.375 0.0937,-1.71875 0.20312,-3.35938 0.125,-1.65625 0.26563,-3.21875 0.14062,-1.57812 0.3125,-2.96875 h 1.57812 q 0.51563,0.8125 1.09375,1.9375 0.57813,1.10938 1.15625,2.34375 0.57813,1.21875 1.10938,2.4375 0.54687,1.21875 1,2.23438 0.4375,-1.01563 0.96875,-2.23438 0.54687,-1.21875 1.125,-2.4375 0.59375,-1.23437 1.17187,-2.34375 0.57813,-1.125 1.07813,-1.9375 h 1.57812 q 0.64063,6.25 0.95313,12.92188 h -1.76563 q -0.0937,-2.60938 -0.23437,-5.17188 -0.125,-2.57812 -0.32813,-4.76562 -0.1875,0.3125 -0.5,0.90625 -0.29687,0.59375 -0.65625,1.35937 -0.35937,0.75 -0.76562,1.60938 -0.39063,0.84375 -0.75,1.64062 -0.35938,0.79688 -0.67188,1.5 -0.29687,0.6875 -0.48437,1.125 z m 18.23398,0.23438 v 1.5625 h -7.78125 v -12.92188 h 1.8125 v 11.35938 z"
       id="path33"
       inkscape:connector-curvature="0"
       style="fill:#000000;fill-rule:nonzero" />
    <path
       d="m 131.92133,237.95189 q 1.0625,0 1.57812,-0.28125 0.51563,-0.28125 0.51563,-0.89063 0,-0.64062 -0.51563,-1.01562 -0.5,-0.375 -1.65625,-0.82813 -0.5625,-0.23437 -1.07812,-0.46875 -0.5,-0.23437 -0.875,-0.54687 -0.375,-0.3125 -0.60938,-0.76563 -0.21875,-0.45312 -0.21875,-1.09375 0,-1.29687 0.95313,-2.04687 0.95312,-0.75 2.59375,-0.75 0.40625,0 0.8125,0.0469 0.42187,0.0469 0.76562,0.10938 0.35938,0.0625 0.625,0.14062 0.28125,0.0625 0.4375,0.125 l -0.32812,1.5 q -0.28125,-0.15625 -0.875,-0.3125 -0.59375,-0.15625 -1.4375,-0.15625 -0.71875,0 -1.26563,0.29688 -0.54687,0.28125 -0.54687,0.89062 0,0.3125 0.125,0.5625 0.125,0.23438 0.375,0.4375 0.25,0.20313 0.625,0.375 0.375,0.15625 0.89062,0.34375 0.6875,0.26563 1.23438,0.51563 0.54687,0.25 0.92187,0.59375 0.39063,0.32812 0.59375,0.8125 0.20313,0.46875 0.20313,1.15625 0,1.34375 -1,2.03125 -1,0.6875 -2.84375,0.6875 -1.28125,0 -2.01563,-0.21875 -0.73437,-0.20313 -0.98437,-0.3125 l 0.3125,-1.5 q 0.29687,0.10937 0.95312,0.34375 0.65625,0.21875 1.73438,0.21875 z m 14.63319,-3.59375 q 0,1.15625 -0.34375,2.09375 -0.32812,0.92187 -0.9375,1.59375 -0.60937,0.67187 -1.45312,1.04687 -0.82813,0.35938 -1.82813,0.35938 -0.98437,0 -1.82812,-0.35938 -0.84375,-0.375 -1.45313,-1.04687 -0.59375,-0.67188 -0.9375,-1.59375 -0.32812,-0.9375 -0.32812,-2.09375 0,-1.14063 0.32812,-2.07813 0.34375,-0.95312 0.9375,-1.625 0.60938,-0.67187 1.45313,-1.03125 0.84375,-0.35937 1.82812,-0.35937 1,0 1.82813,0.35937 0.84375,0.35938 1.45312,1.03125 0.60938,0.67188 0.9375,1.625 0.34375,0.9375 0.34375,2.07813 z m -1.8125,0 q 0,-1.65625 -0.75,-2.60938 -0.73437,-0.95312 -2,-0.95312 -1.26562,0 -2,0.95312 -0.73437,0.95313 -0.73437,2.60938 0,1.64062 0.73437,2.60937 0.73438,0.95313 2,0.95313 1.26563,0 2,-0.95313 0.75,-0.96875 0.75,-2.60937 z m 11.97594,4.5625 q -0.59375,0.15625 -1.57812,0.3125 -0.98438,0.17187 -2.26563,0.17187 -1.125,0 -1.89062,-0.32812 -0.76563,-0.32813 -1.23438,-0.92188 -0.45312,-0.59375 -0.67187,-1.40625 -0.20313,-0.8125 -0.20313,-1.79687 v -5.45313 h 1.73438 v 5.07813 q 0,1.76562 0.5625,2.53125 0.5625,0.76562 1.89062,0.76562 0.28125,0 0.57813,-0.0156 0.29687,-0.0156 0.54687,-0.0469 0.26563,-0.0312 0.48438,-0.0469 0.21875,-0.0312 0.3125,-0.0781 v -8.1875 h 1.73437 z m 6.56807,-9.625 q 0.21875,0 0.5,0.0312 0.29688,0.0312 0.57813,0.0781 0.28125,0.0469 0.51562,0.0937 0.23438,0.0469 0.34375,0.0781 l -0.29687,1.51562 q -0.20313,-0.0781 -0.6875,-0.17187 -0.46875,-0.10938 -1.21875,-0.10938 -0.48438,0 -0.96875,0.10938 -0.46875,0.0937 -0.60938,0.125 v 8.15625 h -1.73437 v -9.29688 q 0.60937,-0.21875 1.51562,-0.40625 0.92188,-0.20312 2.0625,-0.20312 z m 7.82631,10.125 q -1.17188,0 -2.0625,-0.35938 -0.875,-0.375 -1.48438,-1.04687 -0.60937,-0.67188 -0.90625,-1.59375 -0.29687,-0.9375 -0.29687,-2.04688 0,-1.125 0.32812,-2.04687 0.32813,-0.9375 0.92188,-1.60938 0.59375,-0.6875 1.45312,-1.0625 0.875,-0.39062 1.9375,-0.39062 0.65625,0 1.3125,0.10937 0.65625,0.10938 1.25,0.34375 l -0.39062,1.48438 q -0.39063,-0.1875 -0.90625,-0.29688 -0.51563,-0.10937 -1.09375,-0.10937 -1.45313,0 -2.23438,0.92187 -0.76562,0.90625 -0.76562,2.65625 0,0.78125 0.17187,1.4375 0.17188,0.64063 0.54688,1.10938 0.39062,0.46875 0.98437,0.71875 0.60938,0.25 1.46875,0.25 0.6875,0 1.25,-0.125 0.5625,-0.125 0.875,-0.28125 l 0.23438,1.45312 q -0.14063,0.0937 -0.42188,0.1875 -0.28125,0.0781 -0.64062,0.14063 -0.34375,0.0625 -0.75,0.10937 -0.40625,0.0469 -0.78125,0.0469 z m 3.92516,-5.04688 q 0,-1.29687 0.375,-2.25 0.375,-0.96875 0.98437,-1.59375 0.60938,-0.64062 1.40625,-0.95312 0.8125,-0.3125 1.65625,-0.3125 1.95313,0 3,1.21875 1.04688,1.21875 1.04688,3.71875 0,0.10937 0,0.29687 0,0.17188 -0.0156,0.3125 H 176.85 q 0.10937,1.51563 0.875,2.29688 0.76562,0.78125 2.39062,0.78125 0.90625,0 1.53125,-0.15625 0.625,-0.15625 0.9375,-0.29688 l 0.25,1.45313 q -0.3125,0.15625 -1.10937,0.34375 -0.79688,0.1875 -1.79688,0.1875 -1.26562,0 -2.20312,-0.375 -0.92188,-0.39063 -1.51563,-1.0625 -0.59375,-0.67188 -0.89062,-1.59375 -0.28125,-0.92188 -0.28125,-2.01563 z m 6.65625,-0.95312 q 0.0156,-1.17188 -0.59375,-1.92188 -0.59375,-0.76562 -1.65625,-0.76562 -0.60938,0 -1.0625,0.23437 -0.45313,0.23438 -0.78125,0.60938 -0.3125,0.375 -0.48438,0.85937 -0.17187,0.48438 -0.23437,0.98438 z m 6.56947,4.53125 q 1.0625,0 1.57812,-0.28125 0.51563,-0.28125 0.51563,-0.89063 0,-0.64062 -0.51563,-1.01562 -0.5,-0.375 -1.65625,-0.82813 -0.5625,-0.23437 -1.07812,-0.46875 -0.5,-0.23437 -0.875,-0.54687 -0.375,-0.3125 -0.60938,-0.76563 -0.21875,-0.45312 -0.21875,-1.09375 0,-1.29687 0.95313,-2.04687 0.95312,-0.75 2.59375,-0.75 0.40625,0 0.8125,0.0469 0.42187,0.0469 0.76562,0.10938 0.35938,0.0625 0.625,0.14062 0.28125,0.0625 0.4375,0.125 l -0.32812,1.5 q -0.28125,-0.15625 -0.875,-0.3125 -0.59375,-0.15625 -1.4375,-0.15625 -0.71875,0 -1.26563,0.29688 -0.54687,0.28125 -0.54687,0.89062 0,0.3125 0.125,0.5625 0.125,0.23438 0.375,0.4375 0.25,0.20313 0.625,0.375 0.375,0.15625 0.89062,0.34375 0.6875,0.26563 1.23438,0.51563 0.54687,0.25 0.92187,0.59375 0.39063,0.32812 0.59375,0.8125 0.20313,0.46875 0.20313,1.15625 0,1.34375 -1,2.03125 -1,0.6875 -2.84375,0.6875 -1.28125,0 -2.01563,-0.21875 -0.73437,-0.20313 -0.98437,-0.3125 l 0.3125,-1.5 q 0.29687,0.10937 0.95312,0.34375 0.65625,0.21875 1.73438,0.21875 z"
       id="path35"
       inkscape:connector-curvature="0"
       style="fill:#000000;fill-rule:nonzero" />
    <path
       d="M 145.7126,314.44357 V 416.11285 H 270.65747"
       id="path37"
       inkscape:connector-curvature="0"
       style="fill:#000000;fill-opacity:0;fill-rule:evenodd" />
    <path
       d="M 145.7126,314.44357 V 416.11285 H 258.65747"
       id="path39"
       inkscape:connector-curvature="0"
       style="fill-rule:evenodd;stroke:#000000;stroke-width:2;stroke-linecap:butt;stroke-linejoin:round" />
    <path
       d="m 258.65747,419.41632 9.0762,-3.30347 -9.0762,-3.30346 z"
       id="path41"
       inkscape:connector-curvature="0"
       style="fill:#000000;fill-rule:evenodd;stroke:#000000;stroke-width:2;stroke-linecap:butt" />
    <path
       d="m 145.71391,339.7953 h 98.99213 v 38.77164 h -98.99213 z"
       id="path43"
       inkscape:connector-curvature="0"
       style="fill:#000000;fill-opacity:0;fill-rule:evenodd" />
    <path
       d="m 155.97954,364.15527 v -11.45313 h 5.07812 q 1.53125,0 2.32813,0.3125 0.79687,0.29688 1.26562,1.07813 0.48438,0.78125 0.48438,1.73437 0,1.21875 -0.79688,2.0625 -0.78125,0.82813 -2.4375,1.04688 0.60938,0.29687 0.92188,0.57812 0.65625,0.60938 1.25,1.51563 l 2,3.125 h -1.90625 l -1.51563,-2.39063 q -0.67187,-1.03125 -1.10937,-1.57812 -0.42188,-0.54688 -0.76563,-0.76563 -0.32812,-0.21875 -0.6875,-0.29687 -0.25,-0.0625 -0.84375,-0.0625 h -1.75 v 5.09375 z m 1.51562,-6.40625 h 3.25 q 1.04688,0 1.625,-0.20313 0.59375,-0.21875 0.89063,-0.6875 0.3125,-0.48437 0.3125,-1.03125 0,-0.8125 -0.59375,-1.32812 -0.59375,-0.53125 -1.85938,-0.53125 h -3.625 z m 10.27344,6.40625 v -11.45313 h 1.51563 v 11.45313 z m 4.16406,0 v -11.45313 h 1.5625 l 6.01563,8.98438 v -8.98438 h 1.45312 v 11.45313 h -1.5625 l -6.01562,-9 v 9 z m 11.64844,0 v -11.45313 h 7.73438 v 1.34375 h -6.21875 v 3.54688 h 5.375 v 1.35937 h -5.375 v 5.20313 z m 11.99219,0 4.40625,-11.45313 h 1.64062 l 4.6875,11.45313 h -1.73437 l -1.32813,-3.46875 h -4.79687 l -1.25,3.46875 z m 3.3125,-4.70313 h 3.89062 l -1.20312,-3.17187 q -0.54688,-1.45313 -0.8125,-2.375 -0.21875,1.09375 -0.60938,2.1875 z m 8.625,4.70313 v -11.45313 h 4.32812 q 1.14063,0 1.73438,0.10938 0.84375,0.14062 1.40625,0.53125 0.57812,0.39062 0.92187,1.10937 0.35938,0.70313 0.35938,1.5625 0,1.45313 -0.9375,2.46875 -0.92188,1.01563 -3.35938,1.01563 h -2.9375 v 4.65625 z m 1.51562,-6.01563 h 2.96875 q 1.46875,0 2.07813,-0.54687 0.625,-0.54688 0.625,-1.53125 0,-0.71875 -0.375,-1.23438 -0.35938,-0.51562 -0.95313,-0.67187 -0.375,-0.10938 -1.40625,-0.10938 h -2.9375 z m 9.42188,6.01563 v -11.45313 h 1.51562 v 11.45313 z"
       id="path45"
       inkscape:connector-curvature="0"
       style="fill:#000000;fill-rule:nonzero" />
    <path
       d="m 389.22833,317.82678 h 181.54333 v 42.01575 H 389.22833 Z"
       id="path47"
       inkscape:connector-curvature="0"
       style="fill:#000000;fill-opacity:0;fill-rule:evenodd" />
    <path
       d="M 431.6124,344.74677 V 331.3874 h 5.6875 q 2.14062,0 3.10937,0.35937 0.96875,0.35938 1.54688,1.28125 0.57812,0.92188 0.57812,2.10938 0,1.5 -0.89062,2.48437 -0.875,0.96875 -2.625,1.23438 0.875,0.5 1.4375,1.125 0.57812,0.60937 1.53125,2.15625 l 1.64062,2.60937 h -3.23437 l -1.9375,-2.90625 q -1.04688,-1.5625 -1.4375,-1.96875 -0.375,-0.40625 -0.8125,-0.54687 -0.42188,-0.15625 -1.34375,-0.15625 h -0.54688 v 5.57812 z m 2.70312,-7.70312 h 2 q 1.9375,0 2.42188,-0.15625 0.48437,-0.17188 0.75,-0.57813 0.28125,-0.40625 0.28125,-1 0,-0.67187 -0.35938,-1.07812 -0.35937,-0.42188 -1.01562,-0.53125 -0.32813,-0.0469 -1.96875,-0.0469 h -2.10938 z m 10.69172,7.70312 V 331.3874 h 2.6875 v 13.35937 z m 5.29266,0 V 331.3874 h 2.625 l 5.45312,8.92187 v -8.92187 h 2.51563 v 13.35937 h -2.70313 l -5.39062,-8.70312 v 8.70312 z m 13.45734,0 V 331.3874 h 9.15625 v 2.26562 h -6.45313 v 3.15625 h 5.5625 v 2.26563 h -5.5625 v 5.67187 z m 11.06784,-3.5625 v -2.5625 h 5.03125 v 2.5625 z m 6.6033,3.5625 v -13.25 h 2.6875 v 11 h 6.70312 v 2.25 z m 11.30224,-13.35937 h 4.9375 q 1.65625,0 2.53125,0.26562 1.1875,0.34375 2.01563,1.23438 0.84375,0.875 1.28125,2.15625 0.4375,1.28125 0.4375,3.15625 0,1.64062 -0.40625,2.84375 -0.5,1.45312 -1.4375,2.35937 -0.70313,0.67188 -1.89063,1.0625 -0.89062,0.28125 -2.39062,0.28125 h -5.07813 z m 2.70313,2.26562 v 8.84375 h 2.01562 q 1.125,0 1.625,-0.125 0.65625,-0.17187 1.07813,-0.5625 0.4375,-0.39062 0.70312,-1.28125 0.28125,-0.90625 0.28125,-2.45312 0,-1.54688 -0.28125,-2.375 -0.26562,-0.82813 -0.76562,-1.28125 -0.48438,-0.46875 -1.23438,-0.64063 -0.5625,-0.125 -2.21875,-0.125 z m 10.78543,11.09375 V 331.3874 h 9.90625 v 2.26562 h -7.21875 v 2.95313 h 6.71875 v 2.25 h -6.71875 v 3.64062 h 7.46875 v 2.25 z m 11.7561,-4.34375 2.625,-0.25 q 0.23438,1.3125 0.95313,1.9375 0.73437,0.60938 1.96875,0.60938 1.29687,0 1.95312,-0.54688 0.67188,-0.54687 0.67188,-1.28125 0,-0.48437 -0.28125,-0.8125 -0.28125,-0.32812 -0.96875,-0.57812 -0.48438,-0.15625 -2.17188,-0.57813 -2.15625,-0.54687 -3.03125,-1.32812 -1.23437,-1.09375 -1.23437,-2.6875 0,-1.01563 0.57812,-1.90625 0.57813,-0.89063 1.65625,-1.34375 1.09375,-0.46875 2.64063,-0.46875 2.51562,0 3.78125,1.10937 1.28125,1.09375 1.34375,2.9375 l -2.70313,0.10938 q -0.17187,-1.03125 -0.75,-1.46875 -0.5625,-0.45313 -1.70312,-0.45313 -1.17188,0 -1.84375,0.46875 -0.42188,0.3125 -0.42188,0.84375 0,0.46875 0.40625,0.79688 0.5,0.4375 2.46875,0.90625 1.96875,0.45312 2.90625,0.95312 0.95313,0.5 1.48438,1.35938 0.53125,0.85937 0.53125,2.125 0,1.15625 -0.64063,2.15625 -0.64062,1 -1.8125,1.48437 -1.15625,0.48438 -2.89062,0.48438 -2.53125,0 -3.89063,-1.17188 -1.35937,-1.17187 -1.625,-3.40625 z"
       id="path49"
       inkscape:connector-curvature="0"
       style="fill:#000000;fill-rule:nonzero" />
    <path
       d="m 395.40158,482.2651 v 0 c 0,5.45761 37.87601,9.88187 84.59842,9.88187 46.72241,0 84.59845,-4.42426 84.59845,-9.88187 v 59.29135 c 0,5.45758 -37.87604,9.88184 -84.59845,9.88184 -46.72241,0 -84.59842,-4.42426 -84.59842,-9.88184 z"
       id="path51"
       inkscape:connector-curvature="0"
       style="fill:#3d85c6;fill-rule:evenodd" />
    <path
       d="m 395.40158,482.2651 v 0 c 0,-5.45764 37.87601,-9.8819 84.59842,-9.8819 46.72241,0 84.59845,4.42426 84.59845,9.8819 v 0 c 0,5.45761 -37.87604,9.88187 -84.59845,9.88187 -46.72241,0 -84.59842,-4.42426 -84.59842,-9.88187 z"
       id="path53"
       inkscape:connector-curvature="0"
       style="fill:#8ab5dc;fill-rule:evenodd" />
    <path
       d="m 564.59845,482.2651 v 0 c 0,5.45761 -37.87604,9.88187 -84.59845,9.88187 -46.72241,0 -84.59842,-4.42426 -84.59842,-9.88187 v 0 c 0,-5.45764 37.87601,-9.8819 84.59842,-9.8819 46.72241,0 84.59845,4.42426 84.59845,9.8819 v 59.29135 c 0,5.45758 -37.87604,9.88184 -84.59845,9.88184 -46.72241,0 -84.59842,-4.42426 -84.59842,-9.88184 V 482.2651"
       id="path55"
       inkscape:connector-curvature="0"
       style="fill:#000000;fill-opacity:0;fill-rule:evenodd" />
    <path
       d="m 416.0929,523.7717 v -11.09375 h -3.95313 v -2.26566 h 10.60938 v 2.26566 h -3.95313 v 11.09375 z m 8.04312,-10.98438 v -2.37503 h 2.5625 v 2.37503 z m 0,10.98438 v -9.67188 h 2.5625 v 9.67188 z m 4.98019,-9.67188 h 2.35938 v 1.3125 q 1.26562,-1.53125 3.01562,-1.53125 0.9375,0 1.60938,0.39063 0.6875,0.375 1.125,1.14062 0.64062,-0.76562 1.375,-1.14062 0.75,-0.39063 1.57812,-0.39063 1.0625,0 1.79688,0.4375 0.75,0.42188 1.10937,1.26563 0.26563,0.625 0.26563,2 v 6.1875 h -2.5625 v -5.53125 q 0,-1.4375 -0.26563,-1.85938 -0.34375,-0.54687 -1.09375,-0.54687 -0.53125,0 -1.01562,0.32812 -0.46875,0.32813 -0.67188,0.96875 -0.20312,0.625 -0.20312,2 v 4.64063 h -2.5625 v -5.29688 q 0,-1.42187 -0.14063,-1.82812 -0.14062,-0.40625 -0.42187,-0.60938 -0.28125,-0.20312 -0.78125,-0.20312 -0.59375,0 -1.0625,0.32812 -0.46875,0.3125 -0.6875,0.92188 -0.20313,0.59375 -0.20313,1.98437 v 4.70313 h -2.5625 z m 22.38526,6.59375 2.54687,0.42188 q -0.48437,1.40625 -1.54687,2.14062 -1.0625,0.73438 -2.65625,0.73438 -2.51563,0 -3.73438,-1.65625 -0.95312,-1.3125 -0.95312,-3.32813 0,-2.40625 1.25,-3.76562 1.26562,-1.35938 3.1875,-1.35938 2.15625,0 3.40625,1.42188 1.25,1.42187 1.1875,4.375 h -6.40625 q 0.0312,1.14062 0.60937,1.78125 0.59375,0.625 1.48438,0.625 0.59375,0 1,-0.32813 0.42187,-0.32812 0.625,-1.0625 z m 0.15625,-2.59375 q -0.0312,-1.10937 -0.57813,-1.6875 -0.54687,-0.57812 -1.32812,-0.57812 -0.84375,0 -1.39063,0.60937 -0.54687,0.60938 -0.53125,1.65625 z m 9.13714,1.32813 2.625,-0.25 q 0.23438,1.3125 0.95313,1.9375 0.73437,0.60937 1.96875,0.60937 1.29687,0 1.95312,-0.54687 0.67188,-0.54688 0.67188,-1.28125 0,-0.48438 -0.28125,-0.8125 -0.28125,-0.32813 -0.96875,-0.57813 -0.48438,-0.15625 -2.17188,-0.57812 -2.15625,-0.54688 -3.03125,-1.32813 -1.23437,-1.09375 -1.23437,-2.6875 0,-1.01562 0.57812,-1.90625 0.57813,-0.89065 1.65625,-1.34378 1.09375,-0.46875 2.64063,-0.46875 2.51562,0 3.78125,1.10938 1.28125,1.09378 1.34375,2.93753 l -2.70313,0.10937 q -0.17187,-1.03125 -0.75,-1.46875 -0.5625,-0.45312 -1.70312,-0.45312 -1.17188,0 -1.84375,0.46875 -0.42188,0.3125 -0.42188,0.84375 0,0.46875 0.40625,0.79687 0.5,0.4375 2.46875,0.90625 1.96875,0.45313 2.90625,0.95313 0.95313,0.5 1.48438,1.35937 0.53125,0.85938 0.53125,2.125 0,1.15625 -0.64063,2.15625 -0.64062,1 -1.8125,1.48438 -1.15625,0.48437 -2.89062,0.48437 -2.53125,0 -3.89063,-1.17187 -1.35937,-1.17188 -1.625,-3.40625 z m 18.7092,1.26562 2.54688,0.42188 q -0.48438,1.40625 -1.54688,2.14062 -1.0625,0.73438 -2.65625,0.73438 -2.51562,0 -3.73437,-1.65625 -0.95313,-1.3125 -0.95313,-3.32813 0,-2.40625 1.25,-3.76562 1.26563,-1.35938 3.1875,-1.35938 2.15625,0 3.40625,1.42188 1.25,1.42187 1.1875,4.375 h -6.40625 q 0.0312,1.14062 0.60938,1.78125 0.59375,0.625 1.48437,0.625 0.59375,0 1,-0.32813 0.42188,-0.32812 0.625,-1.0625 z m 0.15625,-2.59375 q -0.0312,-1.10937 -0.57812,-1.6875 -0.54688,-0.57812 -1.32813,-0.57812 -0.84375,0 -1.39062,0.60937 -0.54688,0.60938 -0.53125,1.65625 z m 7.07886,5.67188 h -2.5625 v -9.67188 h 2.375 v 1.375 q 0.60938,-0.98437 1.09375,-1.28125 0.48438,-0.3125 1.10938,-0.3125 0.875,0 1.6875,0.48438 l -0.79688,2.23437 q -0.64062,-0.42187 -1.20312,-0.42187 -0.53125,0 -0.90625,0.29687 -0.375,0.29688 -0.59375,1.07813 -0.20313,0.76562 -0.20313,3.23437 z m 4.80713,-10.98438 v -2.37503 h 2.5625 v 2.37503 z m 0,10.98438 v -9.67188 h 2.5625 v 9.67188 z m 10.77707,-3.07813 2.54687,0.42188 q -0.48437,1.40625 -1.54687,2.14062 -1.0625,0.73438 -2.65625,0.73438 -2.51563,0 -3.73438,-1.65625 -0.95312,-1.3125 -0.95312,-3.32813 0,-2.40625 1.25,-3.76562 1.26562,-1.35938 3.1875,-1.35938 2.15625,0 3.40625,1.42188 1.25,1.42187 1.1875,4.375 h -6.40625 q 0.0312,1.14062 0.60937,1.78125 0.59375,0.625 1.48438,0.625 0.59375,0 1,-0.32813 0.42187,-0.32812 0.625,-1.0625 z m 0.15625,-2.59375 q -0.0312,-1.10937 -0.57813,-1.6875 -0.54687,-0.57812 -1.32812,-0.57812 -0.84375,0 -1.39063,0.60937 -0.54687,0.60938 -0.53125,1.65625 z m 3.71945,2.90625 2.5625,-0.39062 q 0.17188,0.75 0.67188,1.14062 0.5,0.39063 1.40625,0.39063 0.98437,0 1.4844,-0.375 0.34375,-0.25 0.34375,-0.67188 0,-0.29687 -0.1875,-0.48437 -0.1875,-0.1875 -0.8594,-0.34375 -3.09375,-0.6875 -3.92188,-1.25 -1.14062,-0.78125 -1.14062,-2.17188 0,-1.26562 0.98437,-2.10937 1,-0.85938 3.07813,-0.85938 1.9844,0 2.95315,0.65625 0.96875,0.64063 1.32813,1.90625 l -2.40625,0.4375 q -0.15625,-0.5625 -0.59378,-0.85937 -0.42188,-0.29688 -1.23438,-0.29688 -1,0 -1.4375,0.28125 -0.29687,0.20313 -0.29687,0.51563 0,0.26562 0.25,0.46875 0.34375,0.25 2.39062,0.71875 2.04691,0.45312 2.85941,1.14062 0.79687,0.67188 0.79687,1.89063 0,1.34375 -1.10937,2.29687 -1.10938,0.95313 -3.28128,0.95313 -1.98438,0 -3.14063,-0.79688 -1.14062,-0.8125 -1.5,-2.1875 z m 16.4653,-10.59378 h 4.93744 q 1.65625,0 2.53125,0.26563 1.1875,0.34375 2.01563,1.23437 0.84375,0.87503 1.28125,2.15628 0.4375,1.28125 0.4375,3.15625 0,1.64063 -0.40625,2.84375 -0.5,1.45313 -1.4375,2.35938 -0.70313,0.67187 -1.89063,1.0625 -0.89062,0.28125 -2.39062,0.28125 h -5.07807 z m 2.70307,2.26566 v 8.84375 h 2.01562 q 1.125,0 1.625,-0.125 0.65625,-0.17188 1.07813,-0.5625 0.4375,-0.39063 0.70312,-1.28125 0.28125,-0.90625 0.28125,-2.45313 0,-1.54687 -0.28125,-2.375 -0.26562,-0.82812 -0.76562,-1.28125 -0.48438,-0.46875 -1.23438,-0.64062 -0.5625,-0.125 -2.21875,-0.125 z m 10.78546,-2.26566 h 5.34375 q 1.59375,0 2.35937,0.14063 0.78125,0.125 1.39063,0.54687 0.625,0.42188 1.03125,1.12503 0.40625,0.6875 0.40625,1.54688 0,0.9375 -0.5,1.73437 -0.5,0.78125 -1.375,1.17188 1.21875,0.35937 1.875,1.21875 0.65625,0.84375 0.65625,2 0,0.92187 -0.42188,1.78125 -0.42187,0.85937 -1.15625,1.375 -0.73437,0.51562 -1.79687,0.625 -0.6875,0.0781 -3.26563,0.0937 h -4.54687 z m 2.70312,2.23441 v 3.07812 h 1.76563 q 1.57812,0 1.95312,-0.0469 0.70313,-0.0781 1.09375,-0.46875 0.40625,-0.40625 0.40625,-1.04688 0,-0.625 -0.34375,-1 -0.34375,-0.39062 -1.01562,-0.48437 -0.40625,-0.0312 -2.3125,-0.0312 z m 0,5.29687 v 3.57813 h 2.5 q 1.45313,0 1.84375,-0.0781 0.60938,-0.10937 0.98438,-0.53125 0.375,-0.42187 0.375,-1.14062 0,-0.59375 -0.29688,-1.01563 -0.28125,-0.42187 -0.84375,-0.60937 -0.54687,-0.20313 -2.39062,-0.20313 z"
       id="path57"
       inkscape:connector-curvature="0"
       style="fill:#ffffff;fill-rule:nonzero" />
    <path
       d="m 334.5643,442.04987 v 69.85828 h 60.8504"
       id="path59"
       inkscape:connector-curvature="0"
       style="fill:#000000;fill-opacity:0;fill-rule:evenodd" />
    <path
       d="m 334.5643,442.04987 v 69.85828 h 48.8504"
       id="path61"
       inkscape:connector-curvature="0"
       style="fill-rule:evenodd;stroke:#000000;stroke-width:2;stroke-linecap:butt;stroke-linejoin:round" />
    <path
       d="m 383.4147,515.2116 9.0762,-3.30347 -9.0762,-3.30346 z"
       id="path63"
       inkscape:connector-curvature="0"
       style="fill:#000000;fill-rule:evenodd;stroke:#000000;stroke-width:2;stroke-linecap:butt" />
    <path
       d="m 279.30185,457.59317 h 61.76376 v 38.77167 h -61.76376 z"
       id="path65"
       inkscape:connector-curvature="0"
       style="fill:#000000;fill-opacity:0;fill-rule:evenodd" />
    <path
       d="m 289.56747,481.9532 v -11.45313 h 5.07813 q 1.53125,0 2.32812,0.3125 0.79688,0.29688 1.26563,1.07813 0.48437,0.78125 0.48437,1.73437 0,1.21875 -0.79687,2.0625 -0.78125,0.82813 -2.4375,1.04688 0.60937,0.29687 0.92187,0.57812 0.65625,0.60938 1.25,1.51563 l 2,3.125 h -1.90625 l -1.51562,-2.39063 q -0.67188,-1.03125 -1.10938,-1.57812 -0.42187,-0.54688 -0.76562,-0.76563 -0.32813,-0.21875 -0.6875,-0.29687 -0.25,-0.0625 -0.84375,-0.0625 h -1.75 v 5.09375 z m 1.51563,-6.40625 h 3.25 q 1.04687,0 1.625,-0.20313 0.59375,-0.21875 0.89062,-0.6875 0.3125,-0.48437 0.3125,-1.03125 0,-0.8125 -0.59375,-1.32812 -0.59375,-0.53125 -1.85937,-0.53125 h -3.625 z m 10.00781,6.40625 v -11.45313 h 3.95312 q 1.32813,0 2.03125,0.15625 0.98438,0.23438 1.6875,0.82813 0.90625,0.76562 1.34375,1.95312 0.45313,1.1875 0.45313,2.71875 0,1.3125 -0.3125,2.32813 -0.29688,1 -0.78125,1.65625 -0.46875,0.65625 -1.03125,1.04687 -0.5625,0.375 -1.375,0.57813 -0.79688,0.1875 -1.82813,0.1875 z m 1.51562,-1.35938 h 2.45313 q 1.125,0 1.76562,-0.20312 0.65625,-0.21875 1.03125,-0.59375 0.54688,-0.54688 0.84375,-1.45313 0.29688,-0.90625 0.29688,-2.20312 0,-1.79688 -0.59375,-2.76563 -0.57813,-0.96875 -1.42188,-1.29687 -0.60937,-0.23438 -1.96875,-0.23438 h -2.40625 z m 10.11719,1.35938 v -11.45313 h 7.73438 v 1.34375 h -6.21875 v 3.54688 h 5.375 v 1.35937 h -5.375 v 5.20313 z"
       id="path67"
       inkscape:connector-curvature="0"
       style="fill:#000000;fill-rule:nonzero" />
    <path
       d="m 573.24426,390.17584 h 119.16516 c 3.1e-4,0 5.5e-4,1.2e-4 7.9e-4,3.4e-4 1.9e-4,1.8e-4 3.1e-4,4.5e-4 3.1e-4,7.3e-4 l -10e-4,43.22711 c 0,4.77496 -3.87085,8.64584 -8.64581,8.64584 H 564.59845 v 0 c -6.1e-4,0 -10e-4,-4.9e-4 -10e-4,-0.001 l 10e-4,-43.22711 v 0 c 0,-4.77496 3.87085,-8.64584 8.64581,-8.64584 z"
       id="path69"
       inkscape:connector-curvature="0"
       style="fill:#fce5cd;fill-rule:evenodd" />
    <path
       d="m 573.24426,390.17584 h 119.16516 c 3.1e-4,0 5.5e-4,1.2e-4 7.9e-4,3.4e-4 1.9e-4,1.8e-4 3.1e-4,4.5e-4 3.1e-4,7.3e-4 l -10e-4,43.22711 c 0,4.77496 -3.87085,8.64584 -8.64581,8.64584 H 564.59845 v 0 c -6.1e-4,0 -10e-4,-4.9e-4 -10e-4,-0.001 l 10e-4,-43.22711 v 0 c 0,-4.77496 3.87085,-8.64584 8.64581,-8.64584 z"
       id="path71"
       inkscape:connector-curvature="0"
       style="fill-rule:evenodd;stroke:#595959;stroke-width:1;stroke-linecap:butt;stroke-linejoin:round" />
    <path
       d="m 584.7573,414.45724 q -0.67188,2.14063 -1.35938,3.96875 -0.6875,1.8125 -1.375,3.54688 h -1.54687 q -0.85938,-2.45313 -1.5,-5.17188 -0.64063,-2.71875 -1.20313,-5.92187 h 1.625 q 0.21875,1.25 0.45313,2.5 0.25,1.25 0.5,2.4375 0.26562,1.17187 0.51562,2.25 0.26563,1.0625 0.53125,1.96875 0.64063,-1.67188 1.35938,-3.67188 0.71875,-2.01562 1.34375,-4.17187 h 1.34375 q 0.625,2.15625 1.35937,4.17187 0.73438,2 1.375,3.67188 0.26563,-0.89063 0.51563,-1.95313 0.25,-1.07812 0.5,-2.25 0.25,-1.1875 0.48437,-2.4375 0.25,-1.26562 0.46875,-2.51562 h 1.59375 q -0.57812,3.20312 -1.23437,5.92187 -0.64063,2.71875 -1.46875,5.17188 h -1.5625 q -0.70313,-1.73438 -1.375,-3.54688 -0.67188,-1.82812 -1.34375,-3.96875 z m 7.88702,3.375 q 0,-1.10937 0.3125,-1.92187 0.32813,-0.82813 0.85938,-1.375 0.53125,-0.54688 1.21875,-0.8125 0.6875,-0.28125 1.40625,-0.28125 1.67187,0 2.5625,1.04687 0.90625,1.04688 0.90625,3.20313 0,0.0937 0,0.25 0,0.14062 -0.0156,0.26562 h -5.6875 q 0.0937,1.29688 0.75,1.96875 0.65625,0.67188 2.04688,0.67188 0.78125,0 1.3125,-0.125 0.54687,-0.14063 0.8125,-0.26563 l 0.20312,1.25 q -0.26562,0.14063 -0.95312,0.29688 -0.67188,0.15625 -1.53125,0.15625 -1.09375,0 -1.89063,-0.32813 -0.78125,-0.32812 -1.29687,-0.89062 -0.51563,-0.57813 -0.76563,-1.375 -0.25,-0.79688 -0.25,-1.73438 z m 5.71875,-0.8125 q 0.0156,-1.01562 -0.51562,-1.65625 -0.51563,-0.65625 -1.42188,-0.65625 -0.51562,0 -0.90625,0.20313 -0.39062,0.20312 -0.67187,0.53125 -0.26563,0.3125 -0.42188,0.73437 -0.14062,0.40625 -0.1875,0.84375 z m 5.17841,-3 q 0.28125,-0.17187 0.82812,-0.35937 0.54688,-0.20313 1.26563,-0.20313 0.90625,0 1.59375,0.32813 0.70312,0.3125 1.17187,0.89062 0.48438,0.57813 0.73438,1.375 0.25,0.79688 0.25,1.76563 0,1 -0.29688,1.8125 -0.29687,0.8125 -0.84375,1.375 -0.54687,0.54687 -1.3125,0.85937 -0.76562,0.29688 -1.71875,0.29688 -1.04687,0 -1.84375,-0.14063 -0.79687,-0.14062 -1.3125,-0.28125 v -11.92187 l 1.48438,-0.26563 z m 0,6.65625 q 0.21875,0.0625 0.625,0.125 0.42187,0.0469 1.03125,0.0469 1.1875,0 1.90625,-0.78125 0.73437,-0.79688 0.73437,-2.25 0,-0.64063 -0.14062,-1.20313 -0.125,-0.5625 -0.42188,-0.96875 -0.28125,-0.40625 -0.73437,-0.64062 -0.45313,-0.23438 -1.09375,-0.23438 -0.60938,0 -1.125,0.21875 -0.5,0.20313 -0.78125,0.42188 z m 11.72943,-9.79687 h 1.54688 v 11.09375 h -1.54688 z m 4.21027,3.01562 q 0.51562,-0.125 1.35937,-0.26562 0.84375,-0.15625 1.95313,-0.15625 0.98437,0 1.64062,0.28125 0.65625,0.28125 1.04688,0.79687 0.40625,0.5 0.5625,1.20313 0.15625,0.70312 0.15625,1.54687 v 4.67188 h -1.48438 v -4.35938 q 0,-0.76562 -0.10937,-1.29687 -0.10938,-0.54688 -0.34375,-0.875 -0.23438,-0.34375 -0.64063,-0.5 -0.39062,-0.15625 -0.98437,-0.15625 -0.25,0 -0.5,0.0156 -0.25,0.0156 -0.48438,0.0469 -0.23437,0.0156 -0.42187,0.0469 -0.1875,0.0312 -0.26563,0.0469 v 7.03125 h -1.48437 z m 10.57464,-0.23437 h 3.15625 v 1.23437 h -3.15625 v 3.84375 q 0,0.625 0.0937,1.03125 0.0937,0.40625 0.28125,0.64063 0.20313,0.23437 0.48438,0.32812 0.29687,0.0937 0.67187,0.0937 0.67188,0 1.07813,-0.14062 0.42187,-0.15625 0.57812,-0.21875 l 0.28125,1.23437 q -0.21875,0.10938 -0.78125,0.26563 -0.5625,0.17187 -1.28125,0.17187 -0.84375,0 -1.40625,-0.20312 -0.54687,-0.21875 -0.89062,-0.65625 -0.32813,-0.4375 -0.46875,-1.0625 -0.125,-0.64063 -0.125,-1.46875 v -7.42188 l 1.48437,-0.25 z m 4.4126,4.17187 q 0,-1.10937 0.3125,-1.92187 0.32813,-0.82813 0.85938,-1.375 0.53125,-0.54688 1.21875,-0.8125 0.6875,-0.28125 1.40625,-0.28125 1.67187,0 2.5625,1.04687 0.90625,1.04688 0.90625,3.20313 0,0.0937 0,0.25 0,0.14062 -0.0156,0.26562 h -5.6875 q 0.0937,1.29688 0.75,1.96875 0.65625,0.67188 2.04688,0.67188 0.78125,0 1.3125,-0.125 0.54687,-0.14063 0.8125,-0.26563 l 0.20312,1.25 q -0.26562,0.14063 -0.95312,0.29688 -0.67188,0.15625 -1.53125,0.15625 -1.09375,0 -1.89063,-0.32813 -0.78125,-0.32812 -1.29687,-0.89062 -0.51563,-0.57813 -0.76563,-1.375 -0.25,-0.79688 -0.25,-1.73438 z m 5.71875,-0.8125 q 0.0156,-1.01562 -0.51562,-1.65625 -0.51563,-0.65625 -1.42188,-0.65625 -0.51562,0 -0.90625,0.20313 -0.39062,0.20312 -0.67187,0.53125 -0.26563,0.3125 -0.42188,0.73437 -0.14062,0.40625 -0.1875,0.84375 z m 6.77216,-3.54687 q 0.1875,0 0.4375,0.0312 0.25,0.0156 0.48437,0.0625 0.23438,0.0312 0.4375,0.0781 0.20313,0.0469 0.29688,0.0781 l -0.25,1.29687 q -0.1875,-0.0781 -0.59375,-0.15625 -0.40625,-0.0937 -1.04688,-0.0937 -0.40625,0 -0.82812,0.0937 -0.40625,0.0781 -0.53125,0.125 v 6.98438 h -1.48438 v -7.96875 q 0.53125,-0.1875 1.3125,-0.35938 0.78125,-0.17187 1.76563,-0.17187 z m 6.3479,-3.92188 q 0.65625,0 1.125,0.10938 0.46875,0.0937 0.65625,0.17187 l -0.26563,1.28125 q -0.1875,-0.0937 -0.54687,-0.1875 -0.34375,-0.0937 -0.85938,-0.0937 -1.04687,0 -1.46875,0.57813 -0.40625,0.5625 -0.40625,1.51562 v 0.73438 h 3.20313 v 1.23437 h -3.20313 v 7.07813 h -1.48437 v -9.07813 q 0,-1.59375 0.78125,-2.46875 0.78125,-0.875 2.46875,-0.875 z m 5.73846,11.34375 q 0.53125,0 0.9375,-0.0156 0.40625,-0.0312 0.6875,-0.0937 v -2.46875 q -0.17187,-0.0937 -0.53125,-0.14063 -0.35937,-0.0625 -0.875,-0.0625 -0.32812,0 -0.70312,0.0469 -0.375,0.0469 -0.6875,0.20312 -0.3125,0.15625 -0.53125,0.42188 -0.20313,0.26562 -0.20313,0.6875 0,0.79687 0.51563,1.10937 0.51562,0.3125 1.39062,0.3125 z m -0.125,-7.45312 q 0.89063,0 1.5,0.23437 0.625,0.23438 1,0.65625 0.375,0.42188 0.53125,1.01563 0.17188,0.57812 0.17188,1.28125 v 5.20312 q -0.20313,0.0312 -0.54688,0.0937 -0.34375,0.0469 -0.78125,0.0937 -0.42187,0.0469 -0.92187,0.0781 -0.5,0.0469 -1,0.0469 -0.70313,0 -1.29688,-0.14062 -0.59375,-0.14063 -1.03125,-0.45313 -0.42187,-0.3125 -0.67187,-0.82812 -0.23438,-0.51563 -0.23438,-1.23438 0,-0.6875 0.28125,-1.17187 0.28125,-0.5 0.75,-0.79688 0.48438,-0.3125 1.125,-0.45312 0.64063,-0.15625 1.34375,-0.15625 0.23438,0 0.46875,0.0312 0.23438,0.0156 0.45313,0.0625 0.21875,0.0469 0.375,0.0781 0.15625,0.0312 0.23437,0.0469 v -0.42188 q 0,-0.35937 -0.0937,-0.71875 -0.0781,-0.375 -0.28125,-0.64062 -0.20312,-0.28125 -0.5625,-0.45313 -0.35937,-0.17187 -0.9375,-0.17187 -0.73437,0 -1.29687,0.10937 -0.54688,0.0937 -0.8125,0.21875 l -0.1875,-1.23437 q 0.29687,-0.125 0.96875,-0.25 0.67187,-0.125 1.45312,-0.125 z m 9.27393,8.71875 q -1,0 -1.76563,-0.3125 -0.75,-0.32813 -1.28125,-0.89063 -0.51562,-0.57812 -0.78125,-1.375 -0.25,-0.79687 -0.25,-1.75 0,-0.96875 0.28125,-1.76562 0.28125,-0.79688 0.79688,-1.375 0.51562,-0.59375 1.25,-0.92188 0.75,-0.32812 1.65625,-0.32812 0.5625,0 1.125,0.0937 0.5625,0.0937 1.0625,0.3125 l -0.32813,1.26562 q -0.34375,-0.17187 -0.78125,-0.26562 -0.4375,-0.0937 -0.9375,-0.0937 -1.23437,0 -1.90625,0.79687 -0.65625,0.78125 -0.65625,2.28125 0,0.67188 0.14063,1.23438 0.15625,0.54687 0.48437,0.95312 0.32813,0.40625 0.84375,0.625 0.51563,0.20313 1.25,0.20313 0.59375,0 1.0625,-0.10938 0.48438,-0.10937 0.75,-0.23437 l 0.21875,1.25 q -0.14062,0.0781 -0.375,0.15625 -0.23437,0.0625 -0.54687,0.10937 -0.29688,0.0625 -0.64063,0.0937 -0.34375,0.0469 -0.67187,0.0469 z m 3.36187,-4.32813 q 0,-1.10937 0.3125,-1.92187 0.32813,-0.82813 0.85938,-1.375 0.53125,-0.54688 1.21875,-0.8125 0.6875,-0.28125 1.40625,-0.28125 1.67187,0 2.5625,1.04687 0.90625,1.04688 0.90625,3.20313 0,0.0937 0,0.25 0,0.14062 -0.0156,0.26562 h -5.6875 q 0.0937,1.29688 0.75,1.96875 0.65625,0.67188 2.04688,0.67188 0.78125,0 1.3125,-0.125 0.54687,-0.14063 0.8125,-0.26563 l 0.20312,1.25 q -0.26562,0.14063 -0.95312,0.29688 -0.67188,0.15625 -1.53125,0.15625 -1.09375,0 -1.89063,-0.32813 -0.78125,-0.32812 -1.29687,-0.89062 -0.51563,-0.57813 -0.76563,-1.375 -0.25,-0.79688 -0.25,-1.73438 z m 5.71875,-0.8125 q 0.0156,-1.01562 -0.51562,-1.65625 -0.51563,-0.65625 -1.42188,-0.65625 -0.51562,0 -0.90625,0.20313 -0.39062,0.20312 -0.67187,0.53125 -0.26563,0.3125 -0.42188,0.73437 -0.14062,0.40625 -0.1875,0.84375 z"
       id="path73"
       inkscape:connector-curvature="0"
       style="fill:#000000;fill-rule:nonzero" />
    <path
       d="m 564.59845,511.91077 h 63.90552 v -69.85828"
       id="path75"
       inkscape:connector-curvature="0"
       style="fill:#000000;fill-opacity:0;fill-rule:evenodd" />
    <path
       d="m 564.59845,511.91077 h 63.90552 v -57.85828"
       id="path77"
       inkscape:connector-curvature="0"
       style="fill-rule:evenodd;stroke:#000000;stroke-width:2;stroke-linecap:butt;stroke-linejoin:round" />
    <path
       d="m 631.8074,454.0525 -3.30341,-9.0762 -3.30346,9.0762 z"
       id="path79"
       inkscape:connector-curvature="0"
       style="fill:#000000;fill-rule:evenodd;stroke:#000000;stroke-width:2;stroke-linecap:butt" />
    <path
       d="m 783.1811,416.8058 -90.77167,-0.69293"
       id="path81"
       inkscape:connector-curvature="0"
       style="fill:#000000;fill-opacity:0;fill-rule:evenodd" />
    <path
       d="m 771.18146,416.71414 -66.77234,-0.50967"
       id="path83"
       inkscape:connector-curvature="0"
       style="fill-rule:evenodd;stroke:#000000;stroke-width:2;stroke-linecap:butt;stroke-linejoin:round;stroke-dasharray:8, 6" />
    <path
       d="m 771.15625,420.01755 9.10113,-3.2341 -9.05071,-3.37265 z"
       id="path85"
       inkscape:connector-curvature="0"
       style="fill:#000000;fill-rule:evenodd;stroke:#000000;stroke-width:2;stroke-linecap:butt" />
    <path
       d="m 704.4343,412.9011 -9.10114,3.2341 9.05072,3.37265 z"
       id="path87"
       inkscape:connector-curvature="0"
       style="fill:#000000;fill-rule:evenodd;stroke:#000000;stroke-width:2;stroke-linecap:butt" />
    <path
       d="m 725.147,378.56693 h 88.91339 V 417.3386 H 725.147 Z"
       id="path89"
       inkscape:connector-curvature="0"
       style="fill:#000000;fill-opacity:0;fill-rule:evenodd" />
    <path
       d="m 735.4282,402.92694 v -11.45313 h 1.51562 v 4.70313 h 5.95313 v -4.70313 h 1.51562 v 11.45313 h -1.51562 v -5.40625 h -5.95313 v 5.40625 z m 14.42969,0 v -10.10938 h -3.78125 v -1.34375 h 9.07812 v 1.34375 h -3.78125 v 10.10938 z m 9.77343,0 v -10.10938 h -3.78125 v -1.34375 h 9.07813 v 1.34375 h -3.78125 v 10.10938 z m 6.85157,0 v -11.45313 h 4.32812 q 1.14063,0 1.73438,0.10938 0.84375,0.14062 1.40625,0.53125 0.57812,0.39062 0.92187,1.10937 0.35938,0.70313 0.35938,1.5625 0,1.45313 -0.9375,2.46875 -0.92188,1.01563 -3.35938,1.01563 h -2.9375 v 4.65625 z m 1.51562,-6.01563 h 2.96875 q 1.46875,0 2.07813,-0.54687 0.625,-0.54688 0.625,-1.53125 0,-0.71875 -0.375,-1.23438 -0.35938,-0.51562 -0.95313,-0.67187 -0.375,-0.10938 -1.40625,-0.10938 h -2.9375 z"
       id="path91"
       inkscape:connector-curvature="0"
       style="fill:#000000;fill-rule:nonzero" />
    <path
       d="m 630.6457,457.59317 h 61.76373 v 38.77167 H 630.6457 Z"
       id="path93"
       inkscape:connector-curvature="0"
       style="fill:#000000;fill-opacity:0;fill-rule:evenodd" />
    <path
       d="m 640.81757,481.9532 v -11.45313 h 1.51563 v 10.09375 h 5.64062 v 1.35938 z m 8.96094,0 v -11.45313 h 3.95312 q 1.32813,0 2.03125,0.15625 0.98438,0.23438 1.6875,0.82813 0.90625,0.76562 1.34375,1.95312 0.45313,1.1875 0.45313,2.71875 0,1.3125 -0.3125,2.32813 -0.29688,1 -0.78125,1.65625 -0.46875,0.65625 -1.03125,1.04687 -0.5625,0.375 -1.375,0.57813 -0.79688,0.1875 -1.82813,0.1875 z m 1.51562,-1.35938 h 2.45313 q 1.125,0 1.76562,-0.20312 0.65625,-0.21875 1.03125,-0.59375 0.54688,-0.54688 0.84375,-1.45313 0.29688,-0.90625 0.29688,-2.20312 0,-1.79688 -0.59375,-2.76563 -0.57813,-0.96875 -1.42188,-1.29687 -0.60937,-0.23438 -1.96875,-0.23438 h -2.40625 z m 10.07032,1.35938 v -11.45313 h 8.28125 v 1.34375 h -6.76563 v 3.51563 h 6.34375 v 1.34375 h -6.34375 v 3.89062 h 7.03125 v 1.35938 z m 10.125,-3.6875 1.4375,-0.125 q 0.0937,0.85937 0.46875,1.42187 0.375,0.54688 1.15625,0.89063 0.78125,0.32812 1.75,0.32812 0.875,0 1.53125,-0.25 0.67187,-0.26562 0.98437,-0.70312 0.32813,-0.45313 0.32813,-0.98438 0,-0.54687 -0.3125,-0.9375 -0.3125,-0.40625 -1.03125,-0.6875 -0.45313,-0.17187 -2.03125,-0.54687 -1.57813,-0.39063 -2.21875,-0.71875 -0.8125,-0.4375 -1.21875,-1.0625 -0.40625,-0.64063 -0.40625,-1.4375 0,-0.85938 0.48437,-1.60938 0.5,-0.76562 1.4375,-1.15625 0.95313,-0.39062 2.10938,-0.39062 1.28125,0 2.25,0.42187 0.96875,0.40625 1.48437,1.20313 0.53125,0.79687 0.57813,1.79687 l -1.45313,0.10938 q -0.125,-1.07813 -0.79687,-1.625 -0.67188,-0.5625 -2,-0.5625 -1.375,0 -2,0.5 -0.625,0.5 -0.625,1.21875 0,0.60937 0.4375,1.01562 0.4375,0.39063 2.28125,0.8125 1.85937,0.42188 2.54687,0.73438 1,0.45312 1.46875,1.17187 0.48438,0.70313 0.48438,1.625 0,0.90625 -0.53125,1.71875 -0.51563,0.8125 -1.5,1.26563 -0.98438,0.45312 -2.20313,0.45312 -1.5625,0 -2.60937,-0.45312 -1.04688,-0.46875 -1.65625,-1.375 -0.59375,-0.90625 -0.625,-2.0625 z"
       id="path95"
       inkscape:connector-curvature="0"
       style="fill:#000000;fill-rule:nonzero" />
  </g>
  <rect
     style="fill:#000000;fill-opacity:0"
     id="rect107"
     width="676.30573"
     height="379.68036"
     x="0"
     y="0" />
</svg>
